<?xml version="1.0" standalone="no"?><!DOCTYPE svg PUBLIC "-//W3C//DTD SVG 1.1//EN" "http://www.w3.org/Graphics/SVG/1.1/DTD/svg11.dtd"><svg width="100%" height="100%" viewBox="0 0 903 258" version="1.1" xmlns="http://www.w3.org/2000/svg" xmlns:xlink="http://www.w3.org/1999/xlink" xml:space="preserve" style="fill-rule:evenodd;clip-rule:evenodd;stroke-linejoin:round;stroke-miterlimit:1.41421;"><g id="Logo Black"><path id="Aurelia" d="M648.608,216.843l-3.471,-0.011c-0.237,-0.002 -0.474,-0.005 -0.711,-0.009c-0.706,-0.016 -1.413,-0.04 -2.119,-0.081c-1.511,-0.086 -3.02,-0.234 -4.519,-0.444c-4.169,-0.583 -8.269,-1.647 -12.195,-3.167c-6.313,-2.445 -12.156,-6.066 -17.165,-10.619c-5.156,-4.686 -9.414,-10.345 -12.476,-16.603c-2.286,-4.669 -3.9,-9.663 -4.783,-14.786c-1.03,-5.988 -1.068,-12.148 -0.112,-18.148c0.519,-3.26 1.332,-6.472 2.429,-9.585c1.039,-2.951 2.332,-5.813 3.859,-8.544c3.449,-6.17 8.09,-11.659 13.595,-16.092c2.845,-2.292 5.918,-4.3 9.159,-5.986c3.184,-1.655 6.531,-2.998 9.978,-4c4.774,-1.387 9.734,-2.118 14.705,-2.181c5.559,-0.07 11.124,0.692 16.453,2.277c5.883,1.75 11.461,4.497 16.441,8.084c5.462,3.934 10.193,8.867 13.894,14.489c2.638,4.007 4.749,8.359 6.259,12.912c1.26,3.802 2.1,7.741 2.505,11.726c0.142,1.4 0.231,2.805 0.266,4.212c0.009,0.355 0.015,0.71 0.017,1.065c0.002,0.226 0.007,0.471 -0.017,0.697c-0.013,0.116 -0.033,0.232 -0.058,0.346c-0.078,0.343 -0.213,0.672 -0.399,0.97c-0.374,0.598 -0.95,1.059 -1.616,1.292c-0.221,0.078 -0.45,0.13 -0.683,0.156c-0.116,0.013 -0.234,0.013 -0.351,0.02l-50.618,0l0,-6.25l47.395,0c-0.081,-1.344 -0.225,-2.686 -0.42,-4.018c-0.712,-4.865 -2.165,-9.615 -4.3,-14.044c-2.215,-4.598 -5.156,-8.84 -8.677,-12.534c-3.857,-4.045 -8.405,-7.425 -13.395,-9.943c-4.107,-2.072 -8.506,-3.556 -13.029,-4.393c-5.3,-0.981 -10.766,-1.081 -16.099,-0.3c-4.865,0.712 -9.615,2.166 -14.044,4.3c-5.215,2.513 -9.97,5.959 -13.989,10.125c-4.162,4.313 -7.524,9.388 -9.859,14.909c-1.368,3.233 -2.383,6.615 -3.022,10.067c-0.584,3.16 -0.854,6.376 -0.814,9.589c0.045,3.5 0.46,6.996 1.248,10.408c0.852,3.693 2.14,7.284 3.827,10.679c1.878,3.779 4.249,7.312 7.031,10.485c2.645,3.016 5.659,5.707 8.955,7.993c2.59,1.795 5.353,3.339 8.241,4.602c2.933,1.284 5.993,2.275 9.121,2.956c2.202,0.48 4.437,0.805 6.684,0.976c1.148,0.088 2.297,0.131 3.448,0.142l3.451,0.011c-0.007,2.083 -0.013,4.166 -0.02,6.25ZM748.992,216.833c-1.019,-0.002 -2.038,-0.033 -3.055,-0.102c-2.149,-0.146 -4.289,-0.451 -6.387,-0.94c-2.101,-0.489 -4.161,-1.162 -6.133,-2.038c-2.379,-1.057 -4.628,-2.409 -6.648,-4.054c-1.074,-0.875 -2.083,-1.831 -3.01,-2.861c-1.162,-1.29 -2.194,-2.694 -3.078,-4.188c-1.11,-1.875 -1.981,-3.889 -2.603,-5.977c-0.572,-1.92 -0.933,-3.9 -1.099,-5.896c-0.08,-0.971 -0.112,-1.944 -0.106,-2.917l0.002,-0.17l0,-133.69l6.25,0c0,44.575 0.001,89.151 0,133.726c0,0.222 -0.004,0.444 -0.002,0.666c0.002,0.21 0.007,0.42 0.013,0.63c0.028,0.767 0.086,1.533 0.183,2.294c0.184,1.443 0.501,2.87 0.963,4.25c0.512,1.531 1.203,3.002 2.063,4.369c0.655,1.041 1.408,2.021 2.243,2.924c0.693,0.748 1.442,1.444 2.237,2.082c0.67,0.538 1.372,1.036 2.099,1.492c0.627,0.393 1.272,0.756 1.932,1.088c3.077,1.55 6.457,2.44 9.872,2.827c1.421,0.161 2.85,0.232 4.28,0.235c-0.005,2.083 -0.01,4.167 -0.016,6.25ZM545.068,159.235l0,57.473c-2.083,0 -4.167,0 -6.25,0l0,-110l6.25,0l0,28.448c0.86,-1.593 1.802,-3.141 2.822,-4.637c2.597,-3.812 5.691,-7.282 9.171,-10.309c4.684,-4.075 10.062,-7.338 15.83,-9.632c4.4,-1.75 9.02,-2.934 13.716,-3.532c1.614,-0.205 3.236,-0.342 4.862,-0.411c0.821,-0.035 1.643,-0.05 2.465,-0.052l0.018,6.25c-0.214,0.001 -0.429,0.002 -0.643,0.004c-0.211,0.003 -0.422,0.007 -0.633,0.011c-0.732,0.02 -1.463,0.051 -2.194,0.1c-1.44,0.095 -2.875,0.251 -4.301,0.468c-4.145,0.63 -8.21,1.776 -12.068,3.417c-5.055,2.151 -9.744,5.15 -13.803,8.853c-2.94,2.682 -5.547,5.73 -7.728,9.06c-2.341,3.573 -4.188,7.468 -5.458,11.547c-0.863,2.772 -1.46,5.626 -1.78,8.511c-0.163,1.472 -0.251,2.95 -0.276,4.431ZM764.427,216.708l0,-110l6.25,0l0,110c-2.083,0 -4.167,0 -6.25,0ZM516.875,186.9c-2.213,4.287 -4.978,8.288 -8.217,11.867c-3.173,3.507 -6.794,6.607 -10.754,9.194c-3.815,2.493 -7.942,4.507 -12.258,5.973c-3.56,1.21 -7.246,2.048 -10.979,2.499c-1.274,0.154 -2.553,0.263 -3.834,0.328c-0.707,0.036 -1.414,0.056 -2.121,0.068c-0.238,0.002 -0.475,0.003 -0.712,0.004c-0.71,-0.002 -1.42,-0.013 -2.129,-0.04c-1.521,-0.058 -3.038,-0.178 -4.549,-0.36c-4.313,-0.52 -8.564,-1.549 -12.636,-3.061c-6.271,-2.329 -12.107,-5.8 -17.149,-10.195c-3.918,-3.414 -7.354,-7.381 -10.162,-11.755c-2.596,-4.042 -4.652,-8.429 -6.084,-13.016c-1.092,-3.497 -1.82,-7.107 -2.172,-10.754c-0.124,-1.283 -0.202,-2.57 -0.233,-3.858c-0.018,-0.701 -0.019,-1.402 -0.011,-2.104l0,-54.982l6.25,0l0,55.018c-0.003,0.22 -0.004,0.44 -0.006,0.659c0.001,0.21 0.002,0.42 0.004,0.629c0.01,0.729 0.033,1.458 0.074,2.186c0.082,1.435 0.23,2.866 0.442,4.287c0.591,3.96 1.693,7.842 3.265,11.524c2.277,5.33 5.537,10.227 9.547,14.41c3.953,4.124 8.626,7.549 13.747,10.08c4.513,2.23 9.367,3.76 14.344,4.518c5.127,0.782 10.382,0.754 15.499,-0.096c4.042,-0.671 7.997,-1.86 11.738,-3.533c5.626,-2.514 10.75,-6.116 15.044,-10.535c3.761,-3.871 6.878,-8.36 9.199,-13.232c2.034,-4.27 3.451,-8.828 4.206,-13.495c0.265,-1.636 0.449,-3.285 0.552,-4.939c0.052,-0.835 0.081,-1.67 0.095,-2.506l0,-51.975l0,0l0,-3l6.25,0l0,110c-2.083,0 -4.167,0 -6.25,0l0,-29.808ZM340,210.583c0.84,-0.003 1.679,-0.021 2.518,-0.064c1.548,-0.078 3.092,-0.229 4.625,-0.454c4.375,-0.64 8.659,-1.88 12.699,-3.677c4.757,-2.115 9.167,-4.999 13.02,-8.501c4.06,-3.691 7.496,-8.062 10.116,-12.884c2.285,-4.208 3.944,-8.751 4.904,-13.441c1.1,-5.38 1.287,-10.946 0.56,-16.388c-0.664,-4.979 -2.105,-9.848 -4.257,-14.386c-2.481,-5.231 -5.901,-10.008 -10.042,-14.052c-4.359,-4.256 -9.509,-7.69 -15.12,-10.063c-3.046,-1.289 -6.224,-2.264 -9.468,-2.907c-3.041,-0.603 -6.139,-0.912 -9.238,-0.932c-3.108,-0.02 -6.217,0.251 -9.273,0.817c-3.257,0.603 -6.451,1.54 -9.518,2.793c-5.642,2.305 -10.835,5.679 -15.246,9.885c-4.189,3.993 -7.664,8.726 -10.208,13.925c-2.204,4.505 -3.703,9.348 -4.429,14.311c-0.781,5.333 -0.681,10.798 0.3,16.099c0.837,4.523 2.321,8.922 4.393,13.029c2.474,4.903 5.78,9.378 9.732,13.191c3.956,3.818 8.553,6.964 13.549,9.26c4.012,1.843 8.273,3.134 12.633,3.828c1.63,0.26 3.272,0.437 4.92,0.531c0.732,0.041 1.464,0.064 2.198,0.076c0.21,0.002 0.421,0.003 0.632,0.004ZM842,210.583c0.735,-0.002 1.47,-0.016 2.205,-0.049c1.55,-0.069 3.097,-0.21 4.634,-0.425c4.48,-0.627 8.869,-1.882 13.002,-3.72c4.847,-2.157 9.333,-5.109 13.237,-8.7c4.04,-3.716 7.449,-8.108 10.04,-12.947c2.262,-4.223 3.893,-8.78 4.824,-13.479c1.047,-5.287 1.213,-10.748 0.5,-16.089c-0.664,-4.979 -2.105,-9.848 -4.257,-14.386c-2.481,-5.231 -5.9,-10.008 -10.042,-14.052c-4.359,-4.256 -9.508,-7.69 -15.12,-10.063c-3.046,-1.289 -6.224,-2.264 -9.468,-2.907c-3.041,-0.603 -6.139,-0.912 -9.238,-0.932c-3.006,-0.019 -6.013,0.234 -8.972,0.763c-3.361,0.6 -6.658,1.556 -9.819,2.847c-5.642,2.306 -10.835,5.679 -15.247,9.885c-4.188,3.992 -7.663,8.727 -10.207,13.925c-2.204,4.505 -3.703,9.348 -4.429,14.311c-0.795,5.434 -0.677,11.004 0.357,16.399c0.92,4.805 2.573,9.465 4.882,13.779c2.636,4.924 6.123,9.387 10.256,13.144c3.707,3.368 7.928,6.166 12.479,8.257c4.012,1.843 8.273,3.134 12.633,3.828c1.63,0.26 3.272,0.437 4.92,0.531c0.732,0.041 1.464,0.064 2.198,0.076c0.21,0.002 0.421,0.003 0.632,0.004ZM390.875,182.967c-0.458,1.096 -0.952,2.178 -1.481,3.242c-2.806,5.645 -6.586,10.796 -11.122,15.173c-4.461,4.305 -9.646,7.852 -15.28,10.441c-4.528,2.081 -9.338,3.538 -14.259,4.322c-1.837,0.292 -3.69,0.491 -5.547,0.597c-0.824,0.047 -1.649,0.073 -2.474,0.087c-0.238,0.002 -0.475,0.003 -0.712,0.004c-0.828,-0.003 -1.655,-0.018 -2.482,-0.055c-1.747,-0.077 -3.491,-0.237 -5.223,-0.48c-5.057,-0.707 -10.011,-2.124 -14.677,-4.199c-5.466,-2.431 -10.525,-5.76 -14.928,-9.81c-4.717,-4.34 -8.673,-9.499 -11.63,-15.187c-2.391,-4.6 -4.125,-9.538 -5.133,-14.625c-1.18,-5.957 -1.368,-12.111 -0.564,-18.131c0.75,-5.619 2.376,-11.115 4.805,-16.237c2.798,-5.898 6.652,-11.285 11.323,-15.845c4.915,-4.799 10.723,-8.671 17.051,-11.348c3.439,-1.454 7.026,-2.555 10.689,-3.281c3.427,-0.679 6.919,-1.029 10.413,-1.051c3.502,-0.022 7.006,0.284 10.449,0.922c3.677,0.68 7.283,1.738 10.745,3.152c6.363,2.6 12.221,6.404 17.195,11.147c4.723,4.503 8.64,9.84 11.508,15.702c0.474,0.967 0.919,1.949 1.334,2.943l0,-33.742l6.25,0l0,110c-2.083,0 -4.167,0 -6.25,0l0,-33.741ZM892.875,182.966c-0.501,1.199 -1.045,2.381 -1.631,3.542c-2.839,5.627 -6.65,10.754 -11.211,15.103c-4.407,4.202 -9.507,7.669 -15.041,10.212c-4.528,2.081 -9.338,3.538 -14.259,4.322c-1.837,0.292 -3.69,0.491 -5.547,0.597c-0.824,0.047 -1.649,0.073 -2.474,0.087c-0.237,0.002 -0.475,0.003 -0.712,0.004c-0.828,-0.003 -1.655,-0.018 -2.482,-0.055c-1.747,-0.077 -3.491,-0.237 -5.223,-0.48c-5.057,-0.707 -10.011,-2.124 -14.677,-4.199c-5.869,-2.611 -11.268,-6.257 -15.89,-10.717c-4.536,-4.377 -8.316,-9.528 -11.122,-15.173c-2.21,-4.446 -3.811,-9.192 -4.745,-14.069c-1.121,-5.852 -1.287,-11.888 -0.498,-17.793c0.75,-5.62 2.376,-11.116 4.805,-16.238c2.798,-5.898 6.653,-11.284 11.323,-15.845c4.915,-4.799 10.723,-8.672 17.051,-11.348c3.545,-1.499 7.246,-2.623 11.026,-3.347c3.319,-0.636 6.697,-0.963 10.076,-0.985c3.387,-0.021 6.776,0.264 10.11,0.86c3.794,0.678 7.516,1.757 11.084,3.214c6.363,2.601 12.221,6.404 17.195,11.147c4.723,4.503 8.64,9.84 11.508,15.701c0.474,0.968 0.919,1.95 1.334,2.943l0,-33.741l6.25,0l0,110c-2.083,0 -4.167,0 -6.25,0l0,-33.742ZM764.427,68.708l0,-14.708l6.25,0l0,14.708c-2.083,0 -4.167,0 -6.25,0Z" style="fill:#000;"/><path id="Icon" d="M179.134,150.447l49.203,73.733l-49.907,33.304l-49.204,-73.732l49.908,-33.305l0,0ZM81.382,236.488l-9.42,-14.116l-14.116,9.42l9.42,14.116l14.116,-9.42ZM116.275,192.394l16.532,24.774l-37.987,25.349l-16.532,-24.773l37.987,-25.35l0,0ZM36.83,232.589l-36.33,-54.441l222.862,-148.721l36.33,54.441l-222.862,148.721ZM209.86,165.749l-16.532,-24.774l24.523,-16.365l16.532,24.774l-24.523,16.365ZM64.945,115.475l-37.988,25.35l-25.271,-37.871l37.987,-25.349l25.272,37.87ZM127.804,73.528l-49.908,33.304l-49.067,-73.527l49.908,-33.305l49.067,73.528ZM30.511,67.263l-9.42,-14.116l-14.116,9.42l9.42,14.116l14.116,-9.42l0,0ZM141.998,64.056l-25.272,-37.87l24.523,-16.365l25.272,37.87l-24.523,16.365Z" style="fill:#000;"/></g></svg>